Coordinates
version=1
nRows=8
nColumns=60
inDegrees=yes

Units are S.I. units (second, meters, Newtons, ...)
If the header above contains a line with 'inDegrees', this indicates whether rotational values are in degrees (yes) or radians (no).

endheader
time	pelvis_tilt	pelvis_list	pelvis_rotation	pelvis_tx	pelvis_ty	pelvis_tz	hip_flexion_r	hip_adduction_r	hip_rotation_r	knee_angle_r_beta	knee_angle_r	ankle_angle_r	subtalar_angle_r	mtp_angle_r	hip_flexion_l	hip_adduction_l	hip_rotation_l	knee_angle_l_beta	knee_angle_l	ankle_angle_l	subtalar_angle_l	mtp_angle_l	L5_S1_Flex_Ext	L5_S1_Lat_Bending	L5_S1_axial_rotation	L4_L5_Flex_Ext	L4_L5_Lat_Bending	L4_L5_axial_rotation	L3_L4_Flex_Ext	L3_L4_Lat_Bending	L3_L4_axial_rotation	L2_L3_Flex_Ext	L2_L3_Lat_Bending	L2_L3_axial_rotation	L1_L2_Flex_Ext	L1_L2_Lat_Bending	L1_L2_axial_rotation	L1_T12_Flex_Ext	L1_T12_Lat_Bending	L1_T12_axial_rotation	Abs_r3	Abs_r2	Abs_r1	Abs_t1	Abs_t2	arm_flex_r	arm_add_r	arm_rot_r	elbow_flex_r	pro_sup_r	wrist_flex_r	wrist_dev_r	arm_flex_l	arm_add_l	arm_rot_l	elbow_flex_l	pro_sup_l	wrist_flex_l	wrist_dev_l
     63.12000000	      0.31620968	     15.83578569	     91.80003360	      0.40403145	      0.94457320	      0.27938525	     -6.25626745	     -4.47614226	     -1.54835658	      0.29769914	    -17.05690401	     11.27864645	      0.00000000	      0.00000000	     -5.03028908	     -6.58389921	     -3.06386895	      0.30453970	    -17.44883970	     12.48310363	      0.00000000	      0.00000000	     -6.77002972	      0.06042063	     -0.32317146	    -12.57262219	      0.08035944	     -0.34336968	    -11.12248183	      0.14690672	     -0.34336968	     -7.73746697	      0.14690672	     -0.28277503	     -6.28664960	      0.12320975	     -0.26257681	     -3.86839498	      0.09359155	     -0.24237860	    -48.35764529	      0.68349023	     -1.79738273	      0.00000000	      0.00000000	     18.63262171	    -29.91414460	     13.13234890	     88.71029831	     58.17521667	     -3.06037969	     31.16235234	     20.47442709	    -28.78722295	     11.62819589	     85.88291773	     58.46572297	      9.11024065	     22.14820195
     63.13000000	      0.35133153	     15.84564343	     91.65086863	      0.40401288	      0.94450913	      0.27844386	     -6.31987939	     -4.47521445	     -1.55256268	      0.29663178	    -16.99574885	     11.34955723	      0.00000000	      0.00000000	     -5.10783434	     -6.59901530	     -3.20264623	      0.30531912	    -17.49349713	     12.63106044	      0.00000000	      0.00000000	     -6.70846501	      0.05887080	     -0.29659804	    -12.45829036	      0.07829817	     -0.31513542	    -11.02133716	      0.14313847	     -0.31513542	     -7.66710466	      0.14313847	     -0.25952328	     -6.22948060	      0.12004934	     -0.24098591	     -3.83321690	      0.09119087	     -0.22244853	    -47.91789469	      0.66595828	     -1.64958931	      0.00000000	      0.00000000	     19.07124963	    -30.03371237	     13.07255252	     88.84623692	     58.13045828	     -3.06961090	     31.19814805	     20.92229257	    -28.80851934	     11.56654391	     86.26641826	     58.46996969	      9.11883792	     22.17730209
     63.14000000	      0.50224369	     15.90079137	     91.38283888	      0.40417821	      0.94439538	      0.27740507	     -6.43622774	     -4.32485677	     -1.07845037	      0.29576530	    -16.94610359	     11.51161243	      0.00000000	      0.00000000	     -5.14963602	     -6.76717601	     -3.77565269	      0.31051204	    -17.79102950	     13.14631848	      0.00000000	      0.00000000	     -6.64800907	      0.06588640	     -0.24967095	    -12.34601764	      0.08762891	     -0.26527539	    -10.92201410	      0.16019619	     -0.26527539	     -7.59800957	      0.16019619	     -0.21846209	     -6.17334122	      0.13435554	     -0.20285765	     -3.79867238	      0.10205803	     -0.18725322	    -47.48606398	      0.74532010	     -1.38859495	      0.00000000	      0.00000000	     19.62170261	    -30.34763158	     13.41560322	     88.90651664	     57.46100425	     -3.26334495	     31.84939669	     21.45404431	    -29.00483030	     11.87136648	     86.58778763	     58.35221369	      8.91254370	     22.95825615
     63.15000000	      0.52058065	     15.91405630	     91.29771996	      0.40406805	      0.94438725	      0.27648677	     -6.49880570	     -4.33633597	     -1.11848862	      0.29547958	    -16.92973301	     11.51668961	      0.00000000	      0.00000000	     -5.24474353	     -6.75967177	     -3.81519624	      0.31054858	    -17.79312283	     13.16402216	      0.00000000	      0.00000000	     -6.59435418	      0.06655317	     -0.24388992	    -12.24637515	      0.08851571	     -0.25913304	    -10.83386449	      0.16181737	     -0.25913304	     -7.53668740	      0.16181737	     -0.21340368	     -6.12351729	      0.13571522	     -0.19816056	     -3.76801398	      0.10309086	     -0.18291744	    -47.10281250	      0.75286274	     -1.35644256	      0.00000000	      0.00000000	     20.09013440	    -30.38045856	     13.29542757	     89.01035147	     57.42862151	     -3.27415233	     31.86856134	     21.92073690	    -29.02577155	     11.79217001	     86.77771417	     58.34476904	      8.89795398	     22.99016565
     63.16000000	      0.54476554	     15.91460579	     91.21395705	      0.40392217	      0.94438863	      0.27567614	     -6.54479429	     -4.34700901	     -1.13530618	      0.29514641	    -16.91064355	     11.52031756	      0.00000000	      0.00000000	     -5.31349352	     -6.75807968	     -3.87815530	      0.31059577	    -17.79582696	     13.19591241	      0.00000000	      0.00000000	     -6.54766108	      0.06897574	     -0.23784402	    -12.15966140	      0.09173773	     -0.25270927	    -10.75715239	      0.16770762	     -0.25270927	     -7.48332185	      0.16770762	     -0.20811352	     -6.08015808	      0.14065533	     -0.19324827	     -3.74133354	      0.10684342	     -0.17838302	    -46.76928834	      0.78026737	     -1.32281709	      0.00000000	      0.00000000	     20.61744044	    -30.39813935	     13.20173374	     89.07880881	     57.39733366	     -3.28303532	     31.88803522	     22.45661550	    -29.05510020	     11.75400122	     86.93954826	     58.33258540	      8.87992573	     23.02646495
     63.17000000	      0.57573796	     15.90719392	     91.13939193	      0.40378019	      0.94442641	      0.27502343	     -6.57125389	     -4.33901289	     -1.12816259	      0.29471548	    -16.88595306	     11.51641750	      0.00000000	      0.00000000	     -5.36456102	     -6.76496392	     -3.96877831	      0.31073212	    -17.80363883	     13.24628442	      0.00000000	      0.00000000	     -6.50838145	      0.07304978	     -0.23113733	    -12.08671519	      0.09715620	     -0.24558341	    -10.69261989	      0.17761323	     -0.24558341	     -7.43842916	      0.17761323	     -0.20224516	     -6.04368302	      0.14896310	     -0.18779908	     -3.71888916	      0.11315410	     -0.17335299	    -46.48871787	      0.82635369	     -1.28551646	      0.00000000	      0.00000000	     21.25099792	    -30.40202346	     13.14204273	     89.08328647	     57.35578315	     -3.29517924	     31.92152650	     23.09191714	    -29.09979998	     11.79375228	     87.03952112	     58.30815526	      8.84896168	     23.08834093
     63.18000000	      0.68165258	     16.11973127	     91.02025566	      0.40367447	      0.94474787	      0.27439611	     -6.87652582	     -4.24031948	     -0.95287005	      0.29310011	    -16.79339956	     11.40863460	      0.00000000	      0.00000000	     -5.62474610	     -6.87593437	     -4.26256418	      0.31235058	    -17.89636997	     13.42244194	      0.00000000	      0.00000000	     -6.47716685	      0.08640230	     -0.17366861	    -12.02874656	      0.11491506	     -0.18452290	    -10.64133742	      0.21007856	     -0.18452290	     -7.40275399	      0.21007856	     -0.15196004	     -6.01469714	      0.17619158	     -0.14110575	     -3.70105314	      0.13383717	     -0.13025146	    -46.26575510	      0.97740014	     -0.96589272	      0.00000000	      0.00000000	     22.09319283	    -30.59311495	     13.35405446	     88.68981997	     55.49675899	     -4.47402668	     34.43888142	     24.68282455	    -29.26449425	     13.26741315	     86.50453832	     56.51323370	      5.85420237	     26.91941927
     63.19000000	      0.69578501	     16.07798697	     90.99455641	      0.40336967	      0.94479970	      0.27387348	     -6.87406927	     -4.25603733	     -0.98473047	      0.29252951	    -16.76070630	     11.39594675	      0.00000000	      0.00000000	     -5.62535909	     -6.86332293	     -4.29726447	      0.31201011	    -17.87686256	     13.43510324	      0.00000000	      0.00000000	     -6.44953860	      0.09201697	     -0.17941283	    -11.97743814	      0.12238257	     -0.19062614	    -10.59594697	      0.22373006	     -0.19062614	     -7.37117767	      0.22373006	     -0.15698623	     -5.98904155	      0.18764101	     -0.14577293	     -3.68526636	      0.14253429	     -0.13455962	    -46.06840928	      1.04091438	     -0.99784035	      0.00000000	      0.00000000	     22.77271971	    -30.54478178	     13.23914467	     88.73261136	     55.52774939	     -4.48256981	     34.41845877	     25.32409430	    -29.26890919	     13.21089014	     86.56761197	     56.52684519	      5.82719758	     26.91154600
